<svg xmlns="http://www.w3.org/2000/svg" viewBox="0 0 64 64" role="img" aria-label=":'2 'DJEFJ">
  <defs>
    <linearGradient id="gold" x1="0%" y1="0%" x2="0%" y2="100%">
      <stop offset="0%" stop-color="#E8C547"/>
      <stop offset="100%" stop-color="#C9A227"/>
    </linearGradient>
    <linearGradient id="flame" x1="50%" y1="0%" x2="50%" y2="100%">
      <stop offset="0%" stop-color="#F5D76E"/>
      <stop offset="55%" stop-color="#C9A227"/>
      <stop offset="100%" stop-color="#A8841A"/>
    </linearGradient>
  </defs>
  <!-- Flame -->
  <path d="M32 4 C27 12 24 17 28 23 C30 19 32 19 34 23 C38 17 35 12 32 4 Z" fill="url(#flame)"/>
  <path d="M32 10 C30 15 29 17 31 20 C32 18 33 18 34 20 C36 17 35 15 32 10 Z" fill="#FFF8E1" opacity="0.45"/>
  <!-- Valve -->
  <rect x="28" y="20" width="8" height="6" rx="1.5" fill="url(#gold)"/>
  <!-- Cylinder collar -->
  <rect x="15" y="24" width="34" height="7" rx="2" fill="url(#gold)"/>
  <!-- Cylinder body -->
  <rect x="17" y="28" width="30" height="32" rx="5" fill="#3D3D3D"/>
  <!-- Body highlight -->
  <rect x="21" y="32" width="5" height="24" rx="2.5" fill="#FFFFFF" opacity="0.12"/>
  <!-- Base -->
  <ellipse cx="32" cy="61" rx="14" ry="2.5" fill="#3D3D3D" opacity="0.25"/>
</svg>
